<svg width="20" height="17" viewBox="0 0 20 17" fill="none" xmlns="http://www.w3.org/2000/svg">
<path d="M18 6.5C18 5.35596 17.7663 4.21656 17.1826 3.38965C16.6403 2.62135 15.7119 2 14 2C13.3428 2 12.6978 2.33117 12.1104 2.86523C11.5263 3.39617 11.0971 4.04206 10.8945 4.44727C10.7251 4.78605 10.3788 5 10 5C9.62123 5 9.27486 4.78605 9.10547 4.44727C8.90287 4.04206 8.47367 3.39617 7.88965 2.86523C7.30218 2.33117 6.65719 2 6 2C4.28807 2 3.35971 2.62135 2.81738 3.38965C2.23373 4.21656 2 5.35596 2 6.5C2 8.11366 2.91277 9.7451 4.50586 11.2793C5.98781 12.7064 7.9633 13.953 9.99805 14.9004H10.002C12.0367 13.953 14.0122 12.7064 15.4941 11.2793C17.0872 9.7451 18 8.11366 18 6.5ZM20 6.5C20 8.88622 18.6626 11.005 16.8809 12.7207C15.0868 14.4482 12.7291 15.8817 10.4062 16.9141C10.1477 17.029 9.85231 17.029 9.59375 16.9141C7.27089 15.8817 4.91323 14.4482 3.11914 12.7207C1.33744 11.005 0 8.88622 0 6.5C0 5.14409 0.266325 3.53343 1.18262 2.23535C2.14029 0.87872 3.71199 0 6 0C7.34279 0 8.44782 0.668843 9.23535 1.38477C9.51979 1.64335 9.77496 1.92018 10 2.19531C10.225 1.92018 10.4802 1.64335 10.7646 1.38477C11.5522 0.668843 12.6572 0 14 0C16.288 0 17.8597 0.87872 18.8174 2.23535C19.7337 3.53343 20 5.14409 20 6.5Z" />
</svg>
