<svg width="94" height="80" viewBox="0 0 94 80" fill="none" xmlns="http://www.w3.org/2000/svg">
	<path fill-rule="evenodd" clip-rule="evenodd" d="M4.47619 0C2.00406 0 0 1.98985 0 4.44444C0 6.89904 2.00406 8.88889 4.47619 8.88889H19.1547L22.578 19.086C22.5984 19.1519 22.6203 19.2171 22.6437 19.2817L33.3611 51.206C35.6149 57.9193 42.758 61.7151 49.6339 59.8531L84.1047 50.5187C89.947 48.9366 94 43.6678 94 37.6552V26.6667C94 19.3029 87.9878 13.3333 80.5714 13.3333H30.0834L27.6477 6.07798C26.4291 2.44827 23.0081 0 19.1547 0H4.47619ZM41.8541 48.3951L33.0675 22.2222H80.5714C83.0436 22.2222 85.0476 24.2121 85.0476 26.6667V37.6552C85.0476 39.6594 83.6966 41.4156 81.7492 41.943L47.2784 51.2774C44.9864 51.8981 42.6054 50.6328 41.8541 48.3951Z" fill="#DADADA"/>
	<path d="M35.8095 71.1111C35.8095 76.0203 31.8014 80 26.8571 80C21.9129 80 17.9048 76.0203 17.9048 71.1111C17.9048 66.2019 21.9129 62.2222 26.8571 62.2222C31.8014 62.2222 35.8095 66.2019 35.8095 71.1111Z" fill="#DADADA"/>
	<path d="M85.0476 71.1111C85.0476 76.0203 81.0395 80 76.0952 80C71.151 80 67.1429 76.0203 67.1429 71.1111C67.1429 66.2019 71.151 62.2222 76.0952 62.2222C81.0395 62.2222 85.0476 66.2019 85.0476 71.1111Z" fill="#DADADA"/>
</svg>
