
<svg width="168" height="35" viewBox="0 0 168 35" fill="none" xmlns="http://www.w3.org/2000/svg">
    <path d="M39.82 21V2.28H51.52V4.113H41.731V21H39.82ZM55.9471 21V2.28H67.6471V4.113H57.8581V10.587H66.0871V12.42H57.8581V19.167H67.6471V21H55.9471ZM78.0942 21V4.113H71.5552V2.28H86.5442V4.113H80.0052V21H78.0942ZM102.227 21V12.212L102.76 13.031C102.162 13.4557 101.43 13.8023 100.563 14.071C99.6962 14.331 98.7169 14.461 97.6249 14.461C96.0042 14.461 94.7042 14.162 93.7249 13.564C92.7542 12.966 92.0522 12.1427 91.6189 11.094C91.1856 10.0367 90.9689 8.82767 90.9689 7.467V2.28H92.8929V6.804C92.8929 7.67067 92.9752 8.45933 93.1399 9.17C93.3046 9.88067 93.5776 10.4917 93.9589 11.003C94.3402 11.5143 94.8472 11.9087 95.4799 12.186C96.1126 12.4547 96.8926 12.589 97.8199 12.589C98.9726 12.589 99.9649 12.4157 100.797 12.069C101.629 11.7137 102.24 11.3323 102.63 10.925L102.227 12.459V2.28H104.138V21H102.227ZM124.275 21H122.351V5.647L112.042 21H110.118V2.28H112.042V17.62L122.351 2.28H124.275V21ZM130.256 21V2.28H144.595V21H142.684V4.113H132.167V21H130.256ZM158.152 21.39C156.289 21.39 154.716 20.9783 153.433 20.155C152.15 19.323 151.18 18.1747 150.521 16.71C149.862 15.2453 149.533 13.5553 149.533 11.64C149.533 9.72467 149.862 8.03467 150.521 6.57C151.18 5.10533 152.15 3.96133 153.433 3.138C154.716 2.306 156.289 1.89 158.152 1.89C160.327 1.89 162.104 2.449 163.482 3.567C164.86 4.67633 165.805 6.167 166.316 8.039L164.366 8.546C163.967 7.064 163.252 5.88967 162.221 5.023C161.19 4.15633 159.833 3.723 158.152 3.723C156.687 3.723 155.47 4.05667 154.499 4.724C153.528 5.39133 152.796 6.323 152.302 7.519C151.817 8.70633 151.565 10.08 151.548 11.64C151.539 13.2 151.778 14.5737 152.263 15.761C152.757 16.9483 153.494 17.88 154.473 18.556C155.461 19.2233 156.687 19.557 158.152 19.557C159.833 19.557 161.19 19.1237 162.221 18.257C163.252 17.3817 163.967 16.2073 164.366 14.734L166.316 15.241C165.805 17.113 164.86 18.608 163.482 19.726C162.104 20.8353 160.327 21.39 158.152 21.39Z" fill="#333333"/>
    <path d="M41.3 32.09C40.9667 32.09 40.6567 32.04 40.37 31.94C40.09 31.84 39.8467 31.6967 39.64 31.51C39.4333 31.3233 39.2833 31.0967 39.19 30.83L39.95 30.5C40.0633 30.8 40.2467 31.0233 40.5 31.17C40.7533 31.31 41.0433 31.38 41.37 31.38C41.6233 31.38 41.8667 31.33 42.1 31.23C42.34 31.1233 42.5567 30.98 42.75 30.8C42.95 30.6133 43.1133 30.4 43.24 30.16C43.3733 29.9133 43.4633 29.6533 43.51 29.38C43.57 28.98 43.5433 28.6333 43.43 28.34C43.3167 28.0467 43.1367 27.82 42.89 27.66C42.6433 27.4933 42.3467 27.41 42 27.41C41.7067 27.41 41.42 27.4733 41.14 27.6C40.86 27.7267 40.61 27.94 40.39 28.24L39.77 27.89C40.0233 27.53 40.35 27.24 40.75 27.02C41.15 26.8 41.6033 26.69 42.11 26.69C42.5367 26.69 42.9033 26.7667 43.21 26.92C43.5167 27.0667 43.76 27.27 43.94 27.53C44.1267 27.7833 44.2533 28.07 44.32 28.39C44.3867 28.71 44.3933 29.0367 44.34 29.37C44.28 29.7167 44.1667 30.0533 44 30.38C43.8333 30.7 43.62 30.99 43.36 31.25C43.1 31.5033 42.7967 31.7067 42.45 31.86C42.1033 32.0133 41.72 32.09 41.3 32.09ZM41.11 29.67L41.26 28.99H43.9L43.76 29.67H41.11ZM44.3817 32C44.6751 31.1267 45.0817 30.25 45.6017 29.37C46.1217 28.4833 46.7751 27.62 47.5617 26.78H48.4617L49.2117 32H48.2917L47.7817 27.59C47.4684 27.9567 47.1851 28.3233 46.9317 28.69C46.6784 29.0567 46.4484 29.4267 46.2417 29.8C46.0417 30.1667 45.8584 30.5333 45.6917 30.9C45.5251 31.2667 45.3751 31.6333 45.2417 32H44.3817ZM52.3316 32.1C51.805 32.1 51.3683 31.9767 51.0216 31.73C50.6816 31.4767 50.4383 31.1433 50.2916 30.73C50.1516 30.3167 50.115 29.8667 50.1816 29.38C50.235 29.0133 50.345 28.67 50.5116 28.35C50.685 28.0233 50.905 27.7367 51.1716 27.49C51.4383 27.2367 51.7416 27.04 52.0816 26.9C52.4283 26.76 52.7983 26.69 53.1916 26.69C53.5116 26.69 53.8083 26.7433 54.0816 26.85C54.355 26.95 54.575 27.1067 54.7416 27.32C54.9083 27.5267 54.9916 27.7867 54.9916 28.1C54.9916 28.6267 54.7683 29.0333 54.3216 29.32C53.8816 29.6 53.175 29.74 52.2016 29.74C51.955 29.74 51.695 29.7367 51.4216 29.73C51.1483 29.7167 50.8516 29.6967 50.5316 29.67L50.7016 29.02C50.9816 29.04 51.2383 29.0567 51.4716 29.07C51.7116 29.0767 51.9483 29.08 52.1816 29.08C52.675 29.08 53.0583 29.04 53.3316 28.96C53.6116 28.88 53.8083 28.77 53.9216 28.63C54.035 28.4833 54.085 28.3133 54.0716 28.12C54.065 27.9667 54.015 27.8367 53.9216 27.73C53.835 27.6233 53.715 27.5433 53.5616 27.49C53.415 27.4367 53.2483 27.41 53.0616 27.41C52.815 27.41 52.5783 27.46 52.3516 27.56C52.125 27.6533 51.9183 27.79 51.7316 27.97C51.5516 28.15 51.3983 28.36 51.2716 28.6C51.1516 28.84 51.0716 29.1 51.0316 29.38C50.9783 29.7667 50.9983 30.1133 51.0916 30.42C51.185 30.72 51.3483 30.9567 51.5816 31.13C51.815 31.2967 52.1083 31.38 52.4616 31.38C52.7083 31.38 52.9216 31.3467 53.1016 31.28C53.2816 31.2067 53.4283 31.1233 53.5416 31.03C53.6616 30.93 53.7483 30.8467 53.8016 30.78C53.8616 30.7067 53.8916 30.67 53.8916 30.67L54.6516 30.92C54.6516 30.92 54.6083 30.98 54.5216 31.1C54.435 31.22 54.2983 31.3567 54.1116 31.51C53.925 31.6633 53.685 31.8 53.3916 31.92C53.0983 32.04 52.745 32.1 52.3316 32.1ZM55.278 32L56.378 26.78H57.258L56.788 28.99H57.488C57.8547 28.7633 58.1947 28.46 58.508 28.08C58.8214 27.6933 59.1214 27.26 59.408 26.78H60.328C59.9814 27.3533 59.628 27.8533 59.268 28.28C58.9147 28.7067 58.548 29.0567 58.168 29.33L59.558 32H58.598L57.408 29.68H56.638L56.148 32H55.278ZM61.1862 26.78H61.9862L61.7462 27.9C62.0128 27.5267 62.3328 27.2333 62.7062 27.02C63.0795 26.8 63.4595 26.69 63.8462 26.69C64.1062 26.69 64.3228 26.74 64.4962 26.84C64.6762 26.94 64.8128 27.0833 64.9062 27.27C64.9995 27.4567 65.0495 27.6867 65.0562 27.96C65.2628 27.68 65.4795 27.4467 65.7062 27.26C65.9328 27.0733 66.1728 26.9333 66.4262 26.84C66.6795 26.74 66.9362 26.69 67.1962 26.69C67.4828 26.69 67.7095 26.7433 67.8762 26.85C68.0428 26.9567 68.1628 27.1067 68.2362 27.3C68.3162 27.4867 68.3562 27.7067 68.3562 27.96C68.3562 28.1 68.3462 28.2467 68.3262 28.4C68.3062 28.5533 68.2795 28.7133 68.2462 28.88L67.5762 32H66.6962L67.3162 29.08C67.3762 28.8 67.4062 28.5567 67.4062 28.35C67.4062 28.0567 67.3428 27.84 67.2162 27.7C67.0962 27.5533 66.9195 27.48 66.6862 27.48C66.4662 27.48 66.2462 27.54 66.0262 27.66C65.8062 27.7733 65.5995 27.9333 65.4062 28.14C65.2195 28.3467 65.0595 28.5867 64.9262 28.86L64.2662 32H63.3862L64.0062 29.08C64.0395 28.9333 64.0628 28.8 64.0762 28.68C64.0895 28.56 64.0962 28.4467 64.0962 28.34C64.0962 28.0467 64.0362 27.83 63.9162 27.69C63.7962 27.55 63.6195 27.48 63.3862 27.48C63.0595 27.48 62.7328 27.6067 62.4062 27.86C62.0862 28.1067 61.8262 28.4367 61.6262 28.85L60.9562 32H60.0762L61.1862 26.78ZM69.8143 26.78H70.5943L70.3843 27.76C70.651 27.44 70.961 27.1833 71.3143 26.99C71.6743 26.79 72.041 26.69 72.4143 26.69C72.801 26.69 73.131 26.79 73.4043 26.99C73.6776 27.19 73.8876 27.4567 74.0343 27.79C74.181 28.1167 74.2543 28.4767 74.2543 28.87C74.2543 29.2833 74.1776 29.6833 74.0243 30.07C73.871 30.4567 73.661 30.8033 73.3943 31.11C73.1276 31.4167 72.821 31.66 72.4743 31.84C72.1343 32.0133 71.771 32.1 71.3843 32.1C70.9776 32.1 70.641 31.9933 70.3743 31.78C70.1076 31.5667 69.9176 31.2967 69.8043 30.97L69.1343 34.13H68.2543L69.8143 26.78ZM71.2743 31.34C71.5543 31.34 71.8176 31.2733 72.0643 31.14C72.311 31 72.5276 30.82 72.7143 30.6C72.9076 30.3733 73.0576 30.1233 73.1643 29.85C73.2776 29.57 73.3343 29.29 73.3343 29.01C73.3343 28.7233 73.281 28.4633 73.1743 28.23C73.0676 27.99 72.9143 27.8 72.7143 27.66C72.521 27.52 72.291 27.45 72.0243 27.45C71.8776 27.45 71.7176 27.48 71.5443 27.54C71.3776 27.6 71.211 27.6867 71.0443 27.8C70.8776 27.9067 70.7276 28.03 70.5943 28.17C70.4676 28.31 70.371 28.46 70.3043 28.62L69.9843 30.11C70.031 30.3367 70.111 30.5433 70.2243 30.73C70.3443 30.9167 70.4943 31.0667 70.6743 31.18C70.8543 31.2867 71.0543 31.34 71.2743 31.34ZM77.1004 32.1C76.5804 32.1 76.1404 31.9767 75.7804 31.73C75.4204 31.4767 75.1571 31.1467 74.9904 30.74C74.8304 30.3267 74.7837 29.88 74.8504 29.4C74.9037 29.0333 75.0137 28.6867 75.1804 28.36C75.3537 28.0333 75.5737 27.7467 75.8404 27.5C76.1137 27.2467 76.4204 27.05 76.7604 26.91C77.1071 26.7633 77.4737 26.69 77.8604 26.69C78.3804 26.69 78.8204 26.8167 79.1804 27.07C79.5404 27.3167 79.8037 27.6467 79.9704 28.06C80.1371 28.4667 80.1871 28.9133 80.1204 29.4C80.0737 29.76 79.9637 30.1033 79.7904 30.43C79.6237 30.7567 79.4071 31.0467 79.1404 31.3C78.8737 31.5467 78.5671 31.7433 78.2204 31.89C77.8737 32.03 77.5004 32.1 77.1004 32.1ZM77.2004 31.38C77.4404 31.38 77.6704 31.33 77.8904 31.23C78.1171 31.1233 78.3204 30.9767 78.5004 30.79C78.6871 30.6033 78.8404 30.39 78.9604 30.15C79.0871 29.91 79.1704 29.6567 79.2104 29.39C79.2637 29.0233 79.2337 28.69 79.1204 28.39C79.0071 28.09 78.8337 27.8533 78.6004 27.68C78.3671 27.5 78.0871 27.41 77.7604 27.41C77.5204 27.41 77.2904 27.4633 77.0704 27.57C76.8504 27.67 76.6471 27.81 76.4604 27.99C76.2737 28.17 76.1204 28.3833 76.0004 28.63C75.8804 28.87 75.8004 29.13 75.7604 29.41C75.7137 29.7767 75.7471 30.11 75.8604 30.41C75.9737 30.71 76.1471 30.9467 76.3804 31.12C76.6137 31.2933 76.8871 31.38 77.2004 31.38ZM80.4839 32L81.5839 26.78H82.4639L81.9939 28.98H84.7239L85.1839 26.78H86.0639L84.9639 32H84.0839L84.5739 29.67H81.8539L81.3639 32H80.4839ZM86.1238 32L87.2238 26.78H88.1038L87.6338 28.98H90.3638L90.8238 26.78H91.7038L90.6038 32H89.7238L90.2138 29.67H87.4938L87.0038 32H86.1238ZM93.8236 32.08C93.4236 32.08 93.0736 32.0033 92.7736 31.85C92.4736 31.6967 92.2569 31.4633 92.1236 31.15C91.9969 30.8367 91.9769 30.4367 92.0636 29.95C92.1703 29.4233 92.2869 28.8967 92.4136 28.37C92.5403 27.8367 92.6669 27.3067 92.7936 26.78H93.6736C93.5469 27.3133 93.4203 27.85 93.2936 28.39C93.1669 28.9233 93.0503 29.46 92.9436 30C92.8636 30.4667 92.9236 30.81 93.1236 31.03C93.3236 31.25 93.5903 31.36 93.9236 31.36C94.2369 31.36 94.4969 31.2567 94.7036 31.05C94.9103 30.8433 95.0369 30.57 95.0836 30.23C95.1303 29.8767 95.0669 29.6 94.8936 29.4C94.7269 29.1933 94.4203 29.09 93.9736 29.09H92.8236L92.9336 28.4H94.1936C94.5136 28.4 94.7936 28.4467 95.0336 28.54C95.2803 28.6333 95.4803 28.7667 95.6336 28.94C95.7869 29.1133 95.8936 29.32 95.9536 29.56C96.0203 29.7933 96.0336 30.0533 95.9936 30.34C95.9336 30.7333 95.8003 31.06 95.5936 31.32C95.3936 31.58 95.1403 31.7733 94.8336 31.9C94.5336 32.02 94.1969 32.08 93.8236 32.08ZM97.5536 26.78H98.4336L97.3236 32H96.4436L97.5536 26.78ZM100.917 32.1C100.391 32.1 99.9539 31.9767 99.6072 31.73C99.2672 31.4767 99.0239 31.1433 98.8772 30.73C98.7372 30.3167 98.7005 29.8667 98.7672 29.38C98.8205 29.0133 98.9305 28.67 99.0972 28.35C99.2705 28.0233 99.4905 27.7367 99.7572 27.49C100.024 27.2367 100.327 27.04 100.667 26.9C101.014 26.76 101.384 26.69 101.777 26.69C102.097 26.69 102.394 26.7433 102.667 26.85C102.941 26.95 103.161 27.1067 103.327 27.32C103.494 27.5267 103.577 27.7867 103.577 28.1C103.577 28.6267 103.354 29.0333 102.907 29.32C102.467 29.6 101.761 29.74 100.787 29.74C100.541 29.74 100.281 29.7367 100.007 29.73C99.7339 29.7167 99.4372 29.6967 99.1172 29.67L99.2872 29.02C99.5672 29.04 99.8239 29.0567 100.057 29.07C100.297 29.0767 100.534 29.08 100.767 29.08C101.261 29.08 101.644 29.04 101.917 28.96C102.197 28.88 102.394 28.77 102.507 28.63C102.621 28.4833 102.671 28.3133 102.657 28.12C102.651 27.9667 102.601 27.8367 102.507 27.73C102.421 27.6233 102.301 27.5433 102.147 27.49C102.001 27.4367 101.834 27.41 101.647 27.41C101.401 27.41 101.164 27.46 100.937 27.56C100.711 27.6533 100.504 27.79 100.317 27.97C100.137 28.15 99.9839 28.36 99.8572 28.6C99.7372 28.84 99.6572 29.1 99.6172 29.38C99.5639 29.7667 99.5839 30.1133 99.6772 30.42C99.7705 30.72 99.9339 30.9567 100.167 31.13C100.401 31.2967 100.694 31.38 101.047 31.38C101.294 31.38 101.507 31.3467 101.687 31.28C101.867 31.2067 102.014 31.1233 102.127 31.03C102.247 30.93 102.334 30.8467 102.387 30.78C102.447 30.7067 102.477 30.67 102.477 30.67L103.237 30.92C103.237 30.92 103.194 30.98 103.107 31.1C103.021 31.22 102.884 31.3567 102.697 31.51C102.511 31.6633 102.271 31.8 101.977 31.92C101.684 32.04 101.331 32.1 100.917 32.1ZM106.134 32L107.234 26.78H108.114L107.644 28.99H108.344C108.711 28.7633 109.051 28.46 109.364 28.08C109.678 27.6933 109.978 27.26 110.264 26.78H111.184C110.838 27.3533 110.484 27.8533 110.124 28.28C109.771 28.7067 109.404 29.0567 109.024 29.33L110.414 32H109.454L108.264 29.68H107.494L107.004 32H106.134ZM113.454 32.1C112.934 32.1 112.494 31.9767 112.134 31.73C111.774 31.4767 111.511 31.1467 111.344 30.74C111.184 30.3267 111.138 29.88 111.204 29.4C111.258 29.0333 111.368 28.6867 111.534 28.36C111.708 28.0333 111.928 27.7467 112.194 27.5C112.468 27.2467 112.774 27.05 113.114 26.91C113.461 26.7633 113.828 26.69 114.214 26.69C114.734 26.69 115.174 26.8167 115.534 27.07C115.894 27.3167 116.158 27.6467 116.324 28.06C116.491 28.4667 116.541 28.9133 116.474 29.4C116.428 29.76 116.318 30.1033 116.144 30.43C115.978 30.7567 115.761 31.0467 115.494 31.3C115.228 31.5467 114.921 31.7433 114.574 31.89C114.228 32.03 113.854 32.1 113.454 32.1ZM113.554 31.38C113.794 31.38 114.024 31.33 114.244 31.23C114.471 31.1233 114.674 30.9767 114.854 30.79C115.041 30.6033 115.194 30.39 115.314 30.15C115.441 29.91 115.524 29.6567 115.564 29.39C115.618 29.0233 115.588 28.69 115.474 28.39C115.361 28.09 115.188 27.8533 114.954 27.68C114.721 27.5 114.441 27.41 114.114 27.41C113.874 27.41 113.644 27.4633 113.424 27.57C113.204 27.67 113.001 27.81 112.814 27.99C112.628 28.17 112.474 28.3833 112.354 28.63C112.234 28.87 112.154 29.13 112.114 29.41C112.068 29.7767 112.101 30.11 112.214 30.41C112.328 30.71 112.501 30.9467 112.734 31.12C112.968 31.2933 113.241 31.38 113.554 31.38ZM116.838 32L117.938 26.78H118.918L120.008 30.08L122.518 26.78H123.548L122.448 32H121.608L122.448 28.01L120.138 31.07H119.578L118.528 27.99L117.678 32H116.838ZM123.61 32L124.71 26.78H129.04L127.93 32H127.05L128.01 27.47H125.45L124.49 32H123.61ZM131.624 32.1C131.104 32.1 130.664 31.9767 130.304 31.73C129.944 31.4767 129.68 31.1467 129.514 30.74C129.354 30.3267 129.307 29.88 129.374 29.4C129.427 29.0333 129.537 28.6867 129.704 28.36C129.877 28.0333 130.097 27.7467 130.364 27.5C130.637 27.2467 130.944 27.05 131.284 26.91C131.63 26.7633 131.997 26.69 132.384 26.69C132.904 26.69 133.344 26.8167 133.704 27.07C134.064 27.3167 134.327 27.6467 134.494 28.06C134.66 28.4667 134.71 28.9133 134.644 29.4C134.597 29.76 134.487 30.1033 134.314 30.43C134.147 30.7567 133.93 31.0467 133.664 31.3C133.397 31.5467 133.09 31.7433 132.744 31.89C132.397 32.03 132.024 32.1 131.624 32.1ZM131.724 31.38C131.964 31.38 132.194 31.33 132.414 31.23C132.64 31.1233 132.844 30.9767 133.024 30.79C133.21 30.6033 133.364 30.39 133.484 30.15C133.61 29.91 133.694 29.6567 133.734 29.39C133.787 29.0233 133.757 28.69 133.644 28.39C133.53 28.09 133.357 27.8533 133.124 27.68C132.89 27.5 132.61 27.41 132.284 27.41C132.044 27.41 131.814 27.4633 131.594 27.57C131.374 27.67 131.17 27.81 130.984 27.99C130.797 28.17 130.644 28.3833 130.524 28.63C130.404 28.87 130.324 29.13 130.284 29.41C130.237 29.7767 130.27 30.11 130.384 30.41C130.497 30.71 130.67 30.9467 130.904 31.12C131.137 31.2933 131.41 31.38 131.724 31.38ZM135.007 32L136.107 26.78H136.987L136.517 28.98H139.247L139.707 26.78H140.587L139.487 32H138.607L139.097 29.67H136.377L135.887 32H135.007ZM143.067 32.1C142.541 32.1 142.104 31.9767 141.757 31.73C141.417 31.4767 141.174 31.1433 141.027 30.73C140.887 30.3167 140.851 29.8667 140.917 29.38C140.971 29.0133 141.081 28.67 141.247 28.35C141.421 28.0233 141.641 27.7367 141.907 27.49C142.174 27.2367 142.477 27.04 142.817 26.9C143.164 26.76 143.534 26.69 143.927 26.69C144.247 26.69 144.544 26.7433 144.817 26.85C145.091 26.95 145.311 27.1067 145.477 27.32C145.644 27.5267 145.727 27.7867 145.727 28.1C145.727 28.6267 145.504 29.0333 145.057 29.32C144.617 29.6 143.911 29.74 142.937 29.74C142.691 29.74 142.431 29.7367 142.157 29.73C141.884 29.7167 141.587 29.6967 141.267 29.67L141.437 29.02C141.717 29.04 141.974 29.0567 142.207 29.07C142.447 29.0767 142.684 29.08 142.917 29.08C143.411 29.08 143.794 29.04 144.067 28.96C144.347 28.88 144.544 28.77 144.657 28.63C144.771 28.4833 144.821 28.3133 144.807 28.12C144.801 27.9667 144.751 27.8367 144.657 27.73C144.571 27.6233 144.451 27.5433 144.297 27.49C144.151 27.4367 143.984 27.41 143.797 27.41C143.551 27.41 143.314 27.46 143.087 27.56C142.861 27.6533 142.654 27.79 142.467 27.97C142.287 28.15 142.134 28.36 142.007 28.6C141.887 28.84 141.807 29.1 141.767 29.38C141.714 29.7667 141.734 30.1133 141.827 30.42C141.921 30.72 142.084 30.9567 142.317 31.13C142.551 31.2967 142.844 31.38 143.197 31.38C143.444 31.38 143.657 31.3467 143.837 31.28C144.017 31.2067 144.164 31.1233 144.277 31.03C144.397 30.93 144.484 30.8467 144.537 30.78C144.597 30.7067 144.627 30.67 144.627 30.67L145.387 30.92C145.387 30.92 145.344 30.98 145.257 31.1C145.171 31.22 145.034 31.3567 144.847 31.51C144.661 31.6633 144.421 31.8 144.127 31.92C143.834 32.04 143.481 32.1 143.067 32.1ZM146.014 32L147.114 26.78H147.994L147.524 28.98H150.254L150.714 26.78H151.594L150.494 32H149.614L150.104 29.67H147.384L146.894 32H146.014ZM152.683 26.78H153.483L153.243 27.9C153.51 27.5267 153.83 27.2333 154.203 27.02C154.577 26.8 154.957 26.69 155.343 26.69C155.603 26.69 155.82 26.74 155.993 26.84C156.173 26.94 156.31 27.0833 156.403 27.27C156.497 27.4567 156.547 27.6867 156.553 27.96C156.76 27.68 156.977 27.4467 157.203 27.26C157.43 27.0733 157.67 26.9333 157.923 26.84C158.177 26.74 158.433 26.69 158.693 26.69C158.98 26.69 159.207 26.7433 159.373 26.85C159.54 26.9567 159.66 27.1067 159.733 27.3C159.813 27.4867 159.853 27.7067 159.853 27.96C159.853 28.1 159.843 28.2467 159.823 28.4C159.803 28.5533 159.777 28.7133 159.743 28.88L159.073 32H158.193L158.813 29.08C158.873 28.8 158.903 28.5567 158.903 28.35C158.903 28.0567 158.84 27.84 158.713 27.7C158.593 27.5533 158.417 27.48 158.183 27.48C157.963 27.48 157.743 27.54 157.523 27.66C157.303 27.7733 157.097 27.9333 156.903 28.14C156.717 28.3467 156.557 28.5867 156.423 28.86L155.763 32H154.883L155.503 29.08C155.537 28.9333 155.56 28.8 155.573 28.68C155.587 28.56 155.593 28.4467 155.593 28.34C155.593 28.0467 155.533 27.83 155.413 27.69C155.293 27.55 155.117 27.48 154.883 27.48C154.557 27.48 154.23 27.6067 153.903 27.86C153.583 28.1067 153.323 28.4367 153.123 28.85L152.453 32H151.573L152.683 26.78ZM162.342 32.08C161.942 32.08 161.592 32.0033 161.292 31.85C160.992 31.6967 160.775 31.4633 160.642 31.15C160.515 30.8367 160.495 30.4367 160.582 29.95C160.688 29.4233 160.805 28.8967 160.932 28.37C161.058 27.8367 161.185 27.3067 161.312 26.78H162.192C162.065 27.3133 161.938 27.85 161.812 28.39C161.685 28.9233 161.568 29.46 161.462 30C161.382 30.4667 161.442 30.81 161.642 31.03C161.842 31.25 162.108 31.36 162.442 31.36C162.755 31.36 163.015 31.2567 163.222 31.05C163.428 30.8433 163.555 30.57 163.602 30.23C163.648 29.8767 163.585 29.6 163.412 29.4C163.245 29.1933 162.938 29.09 162.492 29.09H161.342L161.452 28.4H162.712C163.032 28.4 163.312 28.4467 163.552 28.54C163.798 28.6333 163.998 28.7667 164.152 28.94C164.305 29.1133 164.412 29.32 164.472 29.56C164.538 29.7933 164.552 30.0533 164.512 30.34C164.452 30.7333 164.318 31.06 164.112 31.32C163.912 31.58 163.658 31.7733 163.352 31.9C163.052 32.02 162.715 32.08 162.342 32.08ZM166.072 26.78H166.952L165.842 32H164.962L166.072 26.78Z" fill="#333333"/>
    <g clip-path="url(#clip0_15264_60530)">
        <rect x="3.29004" y="3.29033" width="27.4194" height="27.4194" rx="1.31502" fill="#439B24"/>
        <rect x="3.29004" y="7.67741" width="2.19355" height="3.29032" transform="rotate(90 3.29004 7.67741)" fill="#439B24"/>
        <rect x="3.29004" y="13.1613" width="2.19355" height="3.29032" transform="rotate(90 3.29004 13.1613)" fill="#439B24"/>
        <rect x="3.29004" y="18.6452" width="2.19355" height="3.29032" transform="rotate(90 3.29004 18.6452)" fill="#439B24"/>
        <rect x="3.29004" y="24.129" width="2.19355" height="3.29032" transform="rotate(90 3.29004 24.129)" fill="#439B24"/>
        <rect x="34" y="7.67741" width="2.19355" height="3.29032" transform="rotate(90 34 7.67741)" fill="#439B24"/>
        <rect x="34" y="13.1613" width="2.19355" height="3.29032" transform="rotate(90 34 13.1613)" fill="#439B24"/>
        <rect x="34" y="18.6452" width="2.19355" height="3.29032" transform="rotate(90 34 18.6452)" fill="#439B24"/>
        <rect x="34" y="24.129" width="2.19355" height="3.29032" transform="rotate(90 34 24.129)" fill="#439B24"/>
        <rect x="7.67773" width="2.19355" height="3.29032" fill="#439B24"/>
        <rect x="13.1611" width="2.19355" height="3.29032" fill="#439B24"/>
        <rect x="18.6455" width="2.19355" height="3.29032" fill="#439B24"/>
        <rect x="24.1289" width="2.19355" height="3.29032" fill="#439B24"/>
        <rect x="7.67773" y="30.7097" width="2.19355" height="3.29032" fill="#439B24"/>
        <rect x="13.1611" y="30.7097" width="2.19355" height="3.29032" fill="#439B24"/>
        <rect x="18.6455" y="30.7097" width="2.19355" height="3.29032" fill="#439B24"/>
        <rect x="24.1289" y="30.7097" width="2.19355" height="3.29032" fill="#439B24"/>
        <path d="M19.8043 18.3317C21.5501 15.9149 20.9662 12.5683 18.501 10.8572C16.0359 9.14605 12.6224 9.71806 10.877 12.1353C9.13167 14.5521 9.71512 17.8983 12.1807 19.6094C13.9402 20.8307 16.2665 20.9247 18.1224 19.8502L22.1548 23.7799C22.5902 24.2292 23.3146 24.2472 23.7729 23.8203C24.2313 23.3939 24.2496 22.6837 23.8146 22.2343C23.8009 22.22 23.7875 22.2069 23.7729 22.1934L19.8043 18.3317ZM15.3373 18.698C13.3893 18.6984 11.8099 17.1513 11.8087 15.2415C11.8083 13.3316 13.3864 11.7833 15.3348 11.7824C17.2804 11.7816 18.8589 13.3263 18.8626 15.2337C18.866 17.1439 17.2887 18.6948 15.3398 18.698C15.339 18.698 15.3386 18.698 15.3373 18.698Z" fill="white"/>
        <circle cx="7.12856" cy="7.12903" r="1.64516" fill="white"/>
    </g>
    <defs>
        <clipPath id="clip0_15264_60530">
            <rect width="34" height="34" fill="white"/>
        </clipPath>
    </defs>
</svg>
