<?xml version="1.0" encoding="utf-8"?>
<!-- Generator: Adobe Illustrator 27.5.0, SVG Export Plug-In . SVG Version: 6.00 Build 0)  -->
<svg version="1.1" id="Layer_1" xmlns="http://www.w3.org/2000/svg" xmlns:xlink="http://www.w3.org/1999/xlink" x="0px" y="0px"
	 viewBox="0 0 470.9 159.4" style="enable-background:new 0 0 470.9 159.4;" xml:space="preserve">
<style type="text/css">
	.st0{fill-rule:evenodd;clip-rule:evenodd;}
</style>
<g id="Layer_1_00000035527836771642142400000011973077630546671504_">
</g>
<g id="Layer_3">
</g>
<g id="Слой_x0020_1_00000100383393467013194040000005596666854279021976_">
	<g id="_2127782565440_00000061460746454466697630000000248193927786510223_">
		<path d="M219.7,32.5h3.5c4.2,0,6.1,2.2,6.1,7.1c0,3.2-0.9,5.7-2.6,6.9c-0.9,0.7-2.1,1-3.9,1h-3.2V32.5z M182.5,108.5h105.8V2.7
			H182.5C182.5,2.7,182.5,108.5,182.5,108.5z M282.8,103V8.2H188V103H282.8z M283.9,104L283.9,104L283.9,104l-96.9,0v0V7.1h96.9h0
			V104z M180.4,0H291v111.1H179.9V0C179.9,0,180.4,0,180.4,0z M253.3,75.6c-1.9,1.7-4.1,3.3-5.3,4.2l0.1,0.6h11.2l0.2-4.1l-0.4-0.1
			l-1,2.4h-6.7c1-0.7,3.1-2,4.8-3.5c1.2-1,2.4-2.3,2.4-4.1c0-2.7-2.5-3.6-4.8-3.6c-1.7,0-3.7,0.6-5.1,1.7l0.8,1.8
			c0.9-1.3,2.4-2.7,4.1-2.7c1.2,0,2.5,0.9,2.5,2.5C256.2,72.4,254.9,74.1,253.3,75.6L253.3,75.6z M245.6,79.9l-2.9-0.8V67.5
			l-5.9,0.6v0.5l3.5,0.5v10l-2.8,0.8v0.5h8.1V79.9z M228.3,77.7c-2.5,0-3.2-3-3.2-5c0-2.6,1.2-4.6,3.5-4.6c2.5,0,3.2,3.4,3.2,5.2
			C231.8,75.7,230.9,77.7,228.3,77.7z M234.3,74.6c0-3.8-1.4-7.3-5.7-7.3c-3.7,0-5.9,2.1-5.9,5.9c0,3.1,1.7,5.6,5.1,5.6
			c1.4,0,2.8-0.3,3.7-1.5c-0.8,3.5-2.3,6.4-8,9.3c0.1,0.3,0.1,0.5,0.2,0.7C229.5,85.8,234.3,80.9,234.3,74.6z M220.2,79.9l-2.9-0.8
			V67.5l-5.9,0.6v0.5l3.5,0.5v10l-2.8,0.8v0.5h8.1C220.2,80.3,220.2,79.9,220.2,79.9z M252.9,45.6c-6.9-5.2-7.7-6.4-7.7-8.5
			c0-3,1.9-4.9,4.9-4.9c3.4,0,5.2,1.8,5.8,5.9h1.2v-5.9c0-0.5-0.1-0.6-0.7-0.9c-1.1-0.5-3.7-0.7-5.9-0.7c-4.8,0-10,2.5-10,8
			c0,3.1,1.6,4.7,5.7,7.8c7,5.3,8.4,6.6,8.4,9.8c0,3.4-2.6,5.9-6.1,5.9c-2.3,0-4.6-1.1-5.9-3c-0.6-1-1-2-1.3-4.2h-1.1v6.4
			c0,0.6,0,0.7,0.5,1c1.2,0.6,4.9,1.3,7.5,1.3c6.7,0,11.2-3.6,11.2-9C259.4,51.3,257.8,49.3,252.9,45.6L252.9,45.6z M223.6,61.9
			c-3.8-0.3-3.9-0.5-3.9-4.5v-8.5h4.3l4.4,7.8c2.3,4.1,2.5,4.5,3.1,5.2c0.8,0.9,1.6,1.3,2.6,1.3h4.3v-0.6c-1.9-1.2-3.7-3.3-6.4-7.5
			l-4.5-6.9c4.1-1.6,6.4-4.8,6.4-9c0-5.1-3.3-8-9.3-8h-13.2v1.1c3.9,0.3,3.9,0.4,3.9,4.6v20.6c0,4.2,0,4.2-3.9,4.5v1.2h12.2
			L223.6,61.9L223.6,61.9z"/>
		<path class="st0" d="M5.2,150.5v8.7H1.5v-22.2h11.3c1.4,0,2.8,0.2,4.1,0.5c1.2,0.3,2.3,0.8,3.3,1.5c0.9,0.6,1.6,1.3,2.2,2.2
			c0.5,0.8,0.8,1.6,0.8,2.5c0,0.9-0.3,1.8-0.8,2.5c-0.6,0.9-1.4,1.6-2.2,2.2c-1,0.7-2.2,1.2-3.3,1.5c-1.3,0.4-2.7,0.5-4.1,0.5
			L5.2,150.5L5.2,150.5z M465.6,159.2v-22.2h3.7v22.2H465.6z M445.8,145.7h7.3c1.4,0,2.8,0.2,4.1,0.6c1.2,0.3,2.3,0.8,3.3,1.5
			c0.9,0.6,1.7,1.3,2.2,2.2c0.5,0.8,0.8,1.6,0.8,2.5c0,0.9-0.3,1.8-0.8,2.5c-0.6,0.9-1.4,1.6-2.3,2.2c-1,0.7-2.2,1.2-3.3,1.5
			c-1.3,0.4-2.7,0.5-4.1,0.5h-11v-22.2h3.7L445.8,145.7L445.8,145.7z M445.8,147.6v9.7h7.3c0.9,0,1.7-0.1,2.6-0.4
			c0.8-0.2,1.5-0.6,2.2-1c0.6-0.4,1.1-0.9,1.5-1.5c0.4-0.6,0.6-1.2,0.6-1.9c0-0.7-0.2-1.3-0.6-1.9c-0.4-0.6-0.9-1.1-1.5-1.5
			c-0.7-0.4-1.4-0.8-2.2-1c-0.8-0.2-1.7-0.4-2.6-0.4L445.8,147.6L445.8,147.6z M429.9,138.9v20.3h-3.7v-20.3h-10.3v-1.9h24.2v1.9
			H429.9z M396.3,157.3h17.8v1.9h-21.5v-22.2h21v1.9h-17.3v7.9h15.9v1.9h-15.9L396.3,157.3L396.3,157.3z M383.6,147.4l0.8,0.3
			c0.9,0.3,1.7,0.7,2.5,1.2c0.7,0.4,1.2,1,1.7,1.7c0.5,0.7,0.8,1.5,0.8,2.4c0,0.8-0.3,1.6-0.8,2.3c-0.6,0.8-1.3,1.5-2.2,2
			c-1,0.6-2.2,1.1-3.3,1.4c-1.4,0.4-2.8,0.5-4.2,0.5h-12.6v-22.2h12.4c1.3,0,2.6,0.1,3.8,0.4c1,0.3,2.1,0.7,3,1.3
			c0.8,0.5,1.4,1.1,1.9,1.9c0.5,0.7,0.7,1.4,0.7,2.2c0,0.7-0.1,1.3-0.5,1.9c-0.3,0.5-0.8,0.9-1.2,1.3c-0.6,0.4-1.2,0.7-1.8,1
			L383.6,147.4L383.6,147.4z M369.9,148.5v8.8h8.9c1.7,0,3.4-0.3,4.9-1.3c1.2-0.8,1.9-1.8,1.9-3.2c0-0.6-0.2-1.2-0.5-1.7
			c-0.4-0.6-0.9-1-1.5-1.4c-0.7-0.4-1.4-0.7-2.1-0.9c-0.9-0.2-1.8-0.3-2.7-0.3L369.9,148.5L369.9,148.5z M369.9,146.6h8.7
			c0.8,0,1.6-0.1,2.3-0.3c0.7-0.2,1.3-0.4,1.9-0.8c0.5-0.3,1-0.7,1.3-1.2c0.3-0.4,0.5-0.9,0.5-1.5c0-0.6-0.2-1.1-0.5-1.6
			c-0.3-0.5-0.8-0.9-1.3-1.2c-0.6-0.4-1.2-0.6-1.9-0.8c-0.8-0.2-1.5-0.3-2.3-0.3h-8.7L369.9,146.6L369.9,146.6z M358.9,157.3h4.4
			v1.9h-28.1v-22.2h3.7v20.3h16.3v-20.3h3.7V157.3L358.9,157.3z M327.6,140.2c1.4,1,2.5,2.2,3.4,3.6c0.8,1.4,1.3,2.8,1.3,4.4
			c0,1.6-0.4,3.1-1.3,4.4c-0.9,1.4-2.1,2.6-3.4,3.6c-1.5,1.1-3.2,1.9-5,2.4c-1.9,0.6-3.9,0.9-5.9,0.9c-2,0-4-0.3-5.9-0.9
			c-1.8-0.5-3.5-1.3-5-2.4c-1.4-1-2.5-2.2-3.4-3.6c-0.8-1.3-1.3-2.8-1.3-4.4c0-1.6,0.4-3,1.3-4.4c0.9-1.4,2.1-2.6,3.4-3.6
			c1.5-1.1,3.2-1.9,5-2.4c1.9-0.6,3.9-0.9,5.9-0.9c2,0,4,0.3,5.9,0.9C324.4,138.3,326.1,139.1,327.6,140.2L327.6,140.2z
			 M327.6,151.9c0.7-1.2,1-2.4,1-3.8c0-1.3-0.3-2.6-1-3.8c-0.7-1.2-1.6-2.2-2.7-3c-1.1-0.9-2.4-1.5-3.8-1.9
			c-1.4-0.4-2.9-0.7-4.4-0.7c-1.5,0-3,0.2-4.4,0.7c-1.4,0.4-2.7,1.1-3.8,1.9c-1.1,0.8-2,1.8-2.7,3c-0.7,1.2-1,2.4-1,3.8
			c0,1.3,0.3,2.6,1,3.8c0.7,1.2,1.6,2.1,2.7,3c1.2,0.9,2.4,1.5,3.8,1.9c1.4,0.5,2.9,0.7,4.4,0.7c1.5,0,3-0.2,4.4-0.7
			c1.4-0.4,2.7-1.1,3.8-1.9C326,154.1,326.9,153.1,327.6,151.9z M294.4,143.1l-11,16.1H281l-11-16.1v16.1h-3.7v-22.2h3l12.9,18.5
			l12.9-18.5h3v22.2h-3.7L294.4,143.1L294.4,143.1z M256.5,153.6h-14.4l-3.2,5.6H235l12.6-22.2h3.4l12.6,22.2h-3.9L256.5,153.6
			L256.5,153.6z M255.5,151.7l-6.2-10.9l-6.2,10.9H255.5L255.5,151.7z M233.1,154.8c-0.9,1-1.9,1.8-3.1,2.4
			c-1.3,0.7-2.7,1.3-4.1,1.6c-1.7,0.4-3.4,0.6-5.1,0.6c-2,0-4-0.3-5.9-0.9c-1.8-0.5-3.5-1.3-5-2.4c-1.4-1-2.5-2.2-3.4-3.6
			c-0.8-1.3-1.3-2.8-1.3-4.4c0-1.6,0.4-3,1.3-4.4c0.9-1.4,2.1-2.6,3.4-3.6c1.5-1.1,3.2-1.9,5-2.4c1.9-0.6,3.9-0.9,5.9-0.9
			c1.7,0,3.4,0.2,5,0.6c1.4,0.4,2.8,0.9,4,1.6c1.1,0.7,2.2,1.4,3.1,2.4c0.6,0.6,1.1,1.3,1.5,2l0.3,0.5h-3.9l-0.1-0.2
			c-0.3-0.6-0.7-1.2-1.2-1.8c-0.6-0.7-1.4-1.3-2.2-1.7c-0.9-0.5-1.9-0.9-2.9-1.2c-1.2-0.3-2.4-0.4-3.6-0.4c-1.5,0-3,0.2-4.4,0.7
			c-1.4,0.4-2.7,1.1-3.8,1.9c-1.1,0.8-2,1.8-2.7,3c-0.7,1.2-1,2.4-1,3.8c0,1.3,0.3,2.6,1,3.8c0.7,1.2,1.6,2.1,2.7,3
			c1.1,0.9,2.4,1.5,3.8,1.9c1.4,0.5,2.9,0.7,4.4,0.7c1.3,0,2.5-0.1,3.7-0.4c1-0.3,2.1-0.6,3-1.1c0.8-0.4,1.6-1,2.2-1.7
			c0.5-0.5,0.9-1.1,1.2-1.8l0.1-0.2h3.9l-0.3,0.5C234.1,153.5,233.6,154.1,233.1,154.8L233.1,154.8z M169.5,157.3h17.8v1.9h-21.5
			v-22.2h21v1.9h-17.3v7.9h15.9v1.9h-15.9L169.5,157.3L169.5,157.3z M157.2,141.2l-17.5,18h-3.3v-22.2h3.7v18l17.5-18h3.3v22.2h-3.7
			V141.2z M111.2,159.2v-22.2h3.7v22.2H111.2z M119.6,148l14.2,11.3h-4.1L115.7,148l12.8-10.9h4.2L119.6,148z M107.2,154.8
			c-0.9,1-1.9,1.8-3.1,2.4c-1.3,0.7-2.7,1.3-4.1,1.6c-1.7,0.4-3.4,0.6-5.1,0.6c-2,0-4-0.3-5.9-0.9c-1.8-0.5-3.5-1.3-5-2.4
			c-1.4-1-2.5-2.2-3.4-3.6c-0.8-1.3-1.3-2.8-1.3-4.4c0-1.6,0.4-3,1.3-4.4c0.9-1.4,2.1-2.6,3.4-3.6c1.5-1.1,3.2-1.9,5-2.4
			c1.9-0.6,3.9-0.9,5.9-0.9c1.7,0,3.4,0.2,5,0.6c1.4,0.4,2.8,0.9,4,1.6c1.1,0.7,2.2,1.4,3.1,2.4c0.6,0.6,1.1,1.3,1.5,2l0.3,0.5h-3.9
			l-0.1-0.2c-0.3-0.6-0.7-1.2-1.2-1.8c-0.6-0.7-1.4-1.3-2.2-1.7c-0.9-0.5-1.9-0.9-2.9-1.2c-1.2-0.3-2.4-0.4-3.6-0.4
			c-1.5,0-3,0.2-4.4,0.7c-1.4,0.4-2.7,1.1-3.8,1.9c-1.1,0.8-2,1.8-2.7,3c-0.7,1.2-1,2.4-1,3.8c0,1.3,0.3,2.6,1,3.8
			c0.7,1.2,1.6,2.1,2.7,3c1.1,0.9,2.4,1.5,3.8,1.9c1.4,0.5,2.9,0.7,4.4,0.7c1.3,0,2.5-0.1,3.7-0.4c1-0.3,2.1-0.6,3-1.1
			c0.8-0.4,1.6-1,2.2-1.7c0.5-0.5,0.9-1.1,1.2-1.8l0.1-0.2h3.9l-0.3,0.5C108.2,153.5,107.7,154.1,107.2,154.8L107.2,154.8z
			 M75.8,154.8c-0.9,1-1.9,1.8-3.1,2.4c-1.3,0.7-2.7,1.3-4.1,1.6c-1.7,0.4-3.4,0.6-5.1,0.6c-2,0-4-0.3-5.9-0.9
			c-1.8-0.5-3.5-1.3-5-2.4c-1.4-1-2.5-2.2-3.4-3.6c-0.8-1.3-1.3-2.8-1.3-4.4c0-1.6,0.4-3,1.3-4.4c0.9-1.4,2.1-2.6,3.4-3.6
			c1.5-1.1,3.2-1.9,5-2.4c1.9-0.6,3.9-0.9,5.9-0.9c1.7,0,3.4,0.2,5,0.6c1.4,0.4,2.8,0.9,4,1.6c1.1,0.7,2.2,1.4,3.1,2.4
			c0.6,0.6,1.1,1.3,1.5,2l0.3,0.5h-3.9l-0.1-0.2c-0.3-0.6-0.7-1.2-1.2-1.8c-0.6-0.7-1.4-1.3-2.2-1.7c-0.9-0.5-1.9-0.9-2.9-1.2
			c-1.2-0.3-2.4-0.4-3.6-0.4c-1.5,0-3,0.2-4.4,0.7c-1.4,0.4-2.7,1.1-3.8,1.9c-1.1,0.8-2,1.8-2.7,3c-0.7,1.2-1,2.4-1,3.8
			c0,1.3,0.3,2.6,1,3.8c0.7,1.2,1.6,2.1,2.7,3c1.2,0.9,2.4,1.5,3.8,1.9c1.4,0.5,2.9,0.7,4.4,0.7c1.3,0,2.5-0.1,3.7-0.4
			c1-0.3,2.1-0.6,3-1.1c0.8-0.4,1.6-1,2.2-1.7c0.5-0.5,0.9-1.1,1.2-1.8l0.1-0.2h3.9l-0.3,0.5C76.9,153.5,76.4,154.1,75.8,154.8
			L75.8,154.8z M34.9,153.2L24,137.1h4.1l8.8,13.3l8.6-13.3h3.8L35,159.2h-3.8L34.9,153.2L34.9,153.2z M5.2,138.9v9.7h7.6
			c0.9,0,1.7-0.1,2.6-0.4c0.8-0.2,1.5-0.5,2.2-1c0.6-0.4,1.1-0.9,1.5-1.5c0.4-0.6,0.6-1.2,0.6-1.9c0-0.7-0.2-1.3-0.6-1.9
			c-0.4-0.6-0.9-1.1-1.5-1.5c-0.7-0.5-1.4-0.8-2.2-1c-0.8-0.2-1.7-0.4-2.6-0.4C12.8,138.9,5.2,138.9,5.2,138.9z"/>
	</g>
</g>
</svg>
