<svg width="20" height="18" viewBox="0 0 20 18" fill="none" xmlns="http://www.w3.org/2000/svg">
<path d="M1 4C0.447715 4 0 4.44772 0 5C0 5.55228 0.447715 6 1 6V4ZM1 6H9V4H1V6Z" fill="#222222"/>
<path d="M18 6C18.5523 6 19 5.55228 19 5C19 4.44772 18.5523 4 18 4V6ZM18 4H14V6H18V4Z" fill="#222222"/>
<circle cx="12" cy="5" r="3" stroke="#222222" stroke-width="2"/>
<path d="M18 13C18.5523 13 19 13.4477 19 14C19 14.5523 18.5523 15 18 15V13ZM18 15H10V13H18V15Z" fill="#222222"/>
<path d="M1 15C0.447715 15 0 14.5523 0 14C0 13.4477 0.447715 13 1 13V15ZM1 13H5V15H1V13Z" fill="#222222"/>
<circle cx="4" cy="4" r="3" transform="matrix(-1 0 0 1 11 10)" stroke="#222222" stroke-width="2"/>
</svg>
