<svg xmlns="http://www.w3.org/2000/svg" width="0" height="0" class="hidden">

    <symbol width="12" height="12" viewBox="0 0 12 12" fill="none" xmlns="http://www.w3.org/2000/svg" id="instock">
        <rect width="12" height="12" rx="4" fill="#2CBE15"/>
        <path d="M9 4L5 8L3 6" stroke="white" stroke-width="2" stroke-linecap="round" stroke-linejoin="round"/>
    </symbol>

    <symbol width="12" height="12" viewBox="0 0 12 12" fill="none" xmlns="http://www.w3.org/2000/svg" id="nostock">
        <rect width="12" height="12" rx="4" fill="#FF7081"/>
        <path d="M4 8L8 4M8 8L4 4" stroke="white" stroke-width="2" stroke-linecap="round" stroke-linejoin="round"/>
    </symbol>

    <symbol width="12" height="12" viewBox="0 0 12 12" fill="none" xmlns="http://www.w3.org/2000/svg" id="pending">
        <rect width="12" height="12" rx="4" fill="#FCA044"/>
        <path d="M9 8L6 6V3" stroke="white" stroke-width="2" stroke-linecap="round" stroke-linejoin="round"/>
    </symbol>

    <symbol width="12" height="12" viewBox="0 0 12 12" fill="none" xmlns="http://www.w3.org/2000/svg" id="order">
        <rect width="12" height="12" rx="4" fill="#36B1FC"/>
        <path d="M9 4L5 8L3 6" stroke="white" stroke-width="2" stroke-linecap="round" stroke-linejoin="round"/>
    </symbol>

    <symbol width="16" height="16" viewBox="0 0 16 16" fill="none" xmlns="http://www.w3.org/2000/svg" id="instock_lg">
        <path d="M11.7071 6.70711C12.0976 6.31658 12.0976 5.68342 11.7071 5.29289C11.3166 4.90237 10.6834 4.90237 10.2929 5.29289L7 8.58579L5.70711 7.29289C5.31658 6.90237 4.68342 6.90237 4.29289 7.29289C3.90237 7.68342 3.90237 8.31658 4.29289 8.70711L6.29289 10.7071C6.68342 11.0976 7.31658 11.0976 7.70711 10.7071L11.7071 6.70711Z" fill="#2CBE15"/>
        <path fill-rule="evenodd" clip-rule="evenodd" d="M7 0C3.13401 0 0 3.13401 0 7V9C0 12.866 3.13401 16 7 16H9C12.866 16 16 12.866 16 9V7C16 3.13401 12.866 0 9 0H7Z" fill="#2CBE15"/>
        <path d="M11.7071 6.70711C12.0976 6.31658 12.0976 5.68342 11.7071 5.29289C11.3166 4.90237 10.6834 4.90237 10.2929 5.29289L7 8.58579L5.70711 7.29289C5.31658 6.90237 4.68342 6.90237 4.29289 7.29289C3.90237 7.68342 3.90237 8.31658 4.29289 8.70711L6.29289 10.7071C6.68342 11.0976 7.31658 11.0976 7.70711 10.7071L11.7071 6.70711Z" fill="white"/>
    </symbol>

    <symbol width="16" height="16" viewBox="0 0 16 16" fill="none" xmlns="http://www.w3.org/2000/svg" id="nostock_lg">
        <path fill-rule="evenodd" clip-rule="evenodd" d="M0 7C0 3.13401 3.13401 0 7 0H9C12.866 0 16 3.13401 16 7V9C16 12.866 12.866 16 9 16H7C3.13401 16 0 12.866 0 9V7Z" fill="#FF7081"/>
        <path d="M11.7071 4.29289C12.0976 4.68342 12.0976 5.31658 11.7071 5.70711L9.41421 8L11.7071 10.2929C12.0976 10.6834 12.0976 11.3166 11.7071 11.7071C11.3166 12.0976 10.6834 12.0976 10.2929 11.7071L8 9.41421L5.70711 11.7071C5.31658 12.0976 4.68342 12.0976 4.29289 11.7071C3.90237 11.3166 3.90237 10.6834 4.29289 10.2929L6.58579 8L4.29289 5.70711C3.90237 5.31658 3.90237 4.68342 4.29289 4.29289C4.68342 3.90237 5.31658 3.90237 5.70711 4.29289L8 6.58579L10.2929 4.29289C10.6834 3.90237 11.3166 3.90237 11.7071 4.29289Z" fill="white"/>
    </symbol>

    <symbol width="16" height="16" viewBox="0 0 16 16" fill="none" xmlns="http://www.w3.org/2000/svg" id="pending_lg">
        <path d="M11.7071 6.70711C12.0976 6.31658 12.0976 5.68342 11.7071 5.29289C11.3166 4.90237 10.6834 4.90237 10.2929 5.29289L7 8.58579L5.70711 7.29289C5.31658 6.90237 4.68342 6.90237 4.29289 7.29289C3.90237 7.68342 3.90237 8.31658 4.29289 8.70711L6.29289 10.7071C6.68342 11.0976 7.31658 11.0976 7.70711 10.7071L11.7071 6.70711Z" fill="#FCA044"/>
        <path fill-rule="evenodd" clip-rule="evenodd" d="M7 0C3.13401 0 0 3.13401 0 7V9C0 12.866 3.13401 16 7 16H9C12.866 16 16 12.866 16 9V7C16 3.13401 12.866 0 9 0H7Z" fill="#FCA044"/>
        <path d="M8 4V8L11 10" stroke="white" stroke-width="2" stroke-linecap="round" stroke-linejoin="round"/>
    </symbol>

    <svg width="16" height="16" viewBox="0 0 16 16" fill="none" xmlns="http://www.w3.org/2000/svg" id="order_lg">
        <path d="M11.7071 6.70711C12.0976 6.31658 12.0976 5.68342 11.7071 5.29289C11.3166 4.90237 10.6834 4.90237 10.2929 5.29289L7 8.58579L5.70711 7.29289C5.31658 6.90237 4.68342 6.90237 4.29289 7.29289C3.90237 7.68342 3.90237 8.31658 4.29289 8.70711L6.29289 10.7071C6.68342 11.0976 7.31658 11.0976 7.70711 10.7071L11.7071 6.70711Z" fill="#36B1FC"/>
        <path fill-rule="evenodd" clip-rule="evenodd" d="M7 0C3.13401 0 0 3.13401 0 7V9C0 12.866 3.13401 16 7 16H9C12.866 16 16 12.866 16 9V7C16 3.13401 12.866 0 9 0H7Z" fill="#36B1FC"/>
        <path d="M11.7071 6.70711C12.0976 6.31658 12.0976 5.68342 11.7071 5.29289C11.3166 4.90237 10.6834 4.90237 10.2929 5.29289L7 8.58579L5.70711 7.29289C5.31658 6.90237 4.68342 6.90237 4.29289 7.29289C3.90237 7.68342 3.90237 8.31658 4.29289 8.70711L6.29289 10.7071C6.68342 11.0976 7.31658 11.0976 7.70711 10.7071L11.7071 6.70711Z" fill="white"/>
    </svg>
</svg>