<svg width="164" height="20" viewBox="0 0 164 20" fill="none" xmlns="http://www.w3.org/2000/svg">
<path fill-rule="evenodd" clip-rule="evenodd" d="M1.40589 1.40589C0 2.81178 0 5.0745 0 9.6V10.4C0 14.9255 0 17.1882 1.40589 18.5941C2.81178 20 5.0745 20 9.6 20H10.4C14.9255 20 17.1882 20 18.5941 18.5941C20 17.1882 20 14.9255 20 10.4V9.6C20 5.0745 20 2.81178 18.5941 1.40589C17.1882 0 14.9255 0 10.4 0H9.6C5.0745 0 2.81178 0 1.40589 1.40589Z" fill="#0077FF"/>
<path fill-rule="evenodd" clip-rule="evenodd" d="M3.375 6.08337C3.48333 11.2834 6.08329 14.4084 10.6416 14.4084H10.9V11.4334C12.575 11.6 13.8416 12.825 14.3499 14.4084H16.7167C16.0667 12.0417 14.3583 10.7334 13.2916 10.2334C14.3583 9.61671 15.8583 8.11671 16.2166 6.08337H14.0665C13.5999 7.73337 12.2167 9.23337 10.9 9.37504V6.08337H8.74996V11.85C7.41663 11.5167 5.73333 9.90004 5.65833 6.08337H3.375Z" fill="white"/>
<path fill-rule="evenodd" clip-rule="evenodd" d="M29.8333 2C26.6117 2 24 4.50721 24 7.6V12.4C24 15.4928 26.6117 18 29.8333 18H38.1667C41.3883 18 44 15.4928 44 12.4V7.6C44 4.50721 41.3883 2 38.1667 2H29.8333Z" fill="#FC0017"/>
<path fill-rule="evenodd" clip-rule="evenodd" d="M38 10L31 7V13L38 10Z" fill="white"/>
<path fill-rule="evenodd" clip-rule="evenodd" d="M63.363 5.16829C63.363 8.0155 60.9656 10.3366 58.0248 10.3366C55.0521 10.3366 52.6547 8.0155 52.6547 5.16829C52.6547 2.3211 55.0521 0 58.0248 0C60.9656 0 63.363 2.3211 63.363 5.16829ZM60.2304 5.16829C60.2304 3.99227 59.2395 3.03289 58.0248 3.03289C56.7782 3.03289 55.7873 3.99227 55.8192 5.16829C55.8192 6.34431 56.8102 7.30369 58.0248 7.30369C59.2395 7.30369 60.2304 6.34431 60.2304 5.16829Z" fill="#EE8208"/>
<path d="M63.2671 13.3385C62.3082 13.9265 61.2533 14.3289 60.1665 14.5764L63.2032 17.4237C63.8106 18.0117 63.8106 18.971 63.2032 19.559C62.5959 20.147 61.605 20.147 60.9976 19.559L58.0568 16.7119L55.116 19.559C54.7964 19.8376 54.4128 19.9923 53.9973 19.9923C53.5817 19.9923 53.1981 19.8686 52.8785 19.559C52.2711 18.971 52.2711 18.0117 52.8785 17.4237L55.8512 14.5455C54.7644 14.2979 53.7096 13.8956 52.7506 13.3076C52.0154 12.8743 51.7917 11.9459 52.2072 11.2341C52.6867 10.5223 53.6456 10.3366 54.3808 10.7699C56.5545 12.1006 59.3994 12.1006 61.573 10.7699C62.3082 10.3056 63.2991 10.5223 63.7466 11.2341C64.2261 11.9459 64.0024 12.9053 63.2671 13.3385Z" fill="#EE8208"/>
<path fill-rule="evenodd" clip-rule="evenodd" d="M73.3749 8.8879C78.7436 6.62993 82.3236 5.14134 84.1148 4.42212C89.2292 2.36862 90.2919 2.0119 90.9846 2.00013C91.1369 1.99753 91.4776 2.03398 91.6982 2.20682C91.8845 2.35275 91.9358 2.5499 91.9603 2.68826C91.9848 2.82663 92.0154 3.14183 91.9911 3.38811C91.714 6.1992 90.5147 13.021 89.9046 16.1694C89.6465 17.5017 89.1382 17.9484 88.6461 17.9921C87.5766 18.0871 86.7645 17.3098 85.7287 16.6543C84.1078 15.6287 83.1921 14.9902 81.6188 13.9893C79.8005 12.8327 80.9792 12.1969 82.0154 11.158C82.2866 10.8861 86.9987 6.74867 87.0899 6.37335C87.1013 6.32641 87.1119 6.15143 87.0042 6.05904C86.8965 5.96664 86.7376 5.99824 86.6229 6.02337C86.4604 6.05898 83.871 7.71112 78.8549 10.9798C78.1199 11.467 77.4542 11.7044 76.8577 11.6919C76.2001 11.6782 74.9353 11.333 73.995 11.038C72.8417 10.6761 71.925 10.4847 72.0048 9.87009C72.0464 9.54996 72.5031 9.22256 73.3749 8.8879Z" fill="#24A1DE"/>
<rect x="96" width="20" height="20" rx="10" fill="white"/>
<circle cx="106" cy="10" r="10" fill="#222222"/>
<path d="M115.996 10.2999C115.999 10.2003 116 10.1003 116 10C116 9.89967 115.999 9.79969 115.996 9.70007C111.945 9.64938 109.668 9.37189 108.148 7.85183C106.628 6.33183 106.351 4.05453 106.3 0.00441197C106.2 0.00147751 106.1 0 106 0C105.9 0 105.8 0.00147751 105.7 0.00441195C105.649 4.05453 105.372 6.33183 103.852 7.85183C102.332 9.37189 100.055 9.64944 96.0044 9.70007C96.0015 9.79969 96 9.89967 96 10C96 10.1003 96.0015 10.2003 96.0044 10.2999C100.055 10.3506 102.332 10.6282 103.852 12.1482C105.372 13.6682 105.649 15.9455 105.7 19.9956C105.8 19.9985 105.9 20 106 20C106.1 20 106.2 19.9985 106.3 19.9956C106.351 15.9455 106.628 13.6682 108.148 12.1482C109.668 10.6282 111.945 10.3506 115.996 10.2999Z" fill="white"/>
<path d="M120 9.6C120 5.074 120 2.812 121.406 1.406C122.812 0 125.074 0 129.6 0H130.4C134.926 0 137.188 0 138.594 1.406C140 2.812 140 5.074 140 9.6V10.4C140 14.926 140 17.188 138.594 18.594C137.188 20 134.926 20 130.4 20H129.6C125.074 20 122.812 20 121.406 18.594C120 17.188 120 14.926 120 10.4V9.6Z" fill="#0077FF"/>
<path d="M131.666 0C127.972 0.012 126.006 0.136 124.738 1.404C123.332 2.81 123.332 5.072 123.332 9.598V10.398C123.332 14.924 123.332 17.186 124.738 18.592C126.006 19.86 127.972 19.984 131.666 19.996C135.36 19.984 137.326 19.86 138.594 18.592C140 17.186 140 14.924 140 10.398V9.598C140 5.072 140 2.81 138.594 1.404C137.326 0.138 135.36 0.014 131.666 0Z" fill="#FF2B42"/>
<path d="M134.112 8.22204C135.124 8.80604 135.628 9.09804 135.798 9.47804C135.946 9.81004 135.946 10.19 135.798 10.522C135.628 10.904 135.122 11.194 134.112 11.778L131.342 13.378C130.33 13.962 129.826 14.254 129.41 14.21C129.048 14.172 128.72 13.982 128.506 13.688C128.26 13.35 128.26 12.766 128.26 11.6V8.40004C128.26 7.23204 128.26 6.64804 128.506 6.31204C128.72 6.01804 129.048 5.82804 129.41 5.79004C129.824 5.74604 130.33 6.03804 131.342 6.62204L134.112 8.22204Z" fill="white"/>
<rect x="144" width="20" height="20" rx="5" fill="black"/>
<path d="M156.049 6H148V15H150.24V12.0719H154.533L156.491 15H159L156.84 12.0585C157.511 11.9506 157.994 11.6942 158.289 11.2894C158.584 10.8846 158.732 10.2369 158.732 9.37332V8.69868C158.732 8.18591 158.678 7.78113 158.584 7.47075C158.49 7.16042 158.329 6.89055 158.101 6.64768C157.86 6.41829 157.591 6.25637 157.27 6.14842C156.948 6.05397 156.545 6 156.049 6ZM155.687 10.0885H150.24V7.98349H155.687C155.995 7.98349 156.21 8.03748 156.317 8.13193C156.424 8.22637 156.491 8.4018 156.491 8.65818V9.41382C156.491 9.6837 156.424 9.85908 156.317 9.95352C156.21 10.048 155.995 10.0885 155.687 10.0885Z" fill="white"/>
<path d="M159.5 6C160.328 6 161 5.32843 161 4.5C161 3.67157 160.328 3 159.5 3C158.672 3 158 3.67157 158 4.5C158 5.32843 158.672 6 159.5 6Z" fill="#F41240"/>
</svg>
